<mxfile host="app.diagrams.net" modified="2023-10-26T18:42:20.137Z" agent="Mozilla/5.0 (Windows NT 10.0; Win64; x64) AppleWebKit/537.36 (KHTML, like Gecko) Chrome/116.0.0.0 Safari/537.36 OPR/102.0.0.0" etag="8K0_QVu_4T2OsCHiU4rQ" version="22.0.8" type="device">
  <diagram name="Page-1" id="XEkPOjl-qdYywtE6vLCS">
    <mxGraphModel dx="1920" dy="1114" grid="1" gridSize="10" guides="1" tooltips="1" connect="1" arrows="1" fold="1" page="1" pageScale="1" pageWidth="1169" pageHeight="827" background="#ffffff" math="0" shadow="0">
      <root>
        <mxCell id="0" />
        <mxCell id="1" parent="0" />
        <mxCell id="OtMJaFd4Xo8tQMw885LT-32" value="" style="rounded=1;whiteSpace=wrap;html=1;arcSize=7;" vertex="1" parent="1">
          <mxGeometry x="-120" y="160" width="540" height="220" as="geometry" />
        </mxCell>
        <mxCell id="OtMJaFd4Xo8tQMw885LT-1" value="" style="html=1;verticalAlign=bottom;startArrow=circle;startFill=1;endArrow=open;startSize=6;endSize=8;curved=0;rounded=0;entryX=0.5;entryY=0;entryDx=0;entryDy=0;" edge="1" parent="1" target="OtMJaFd4Xo8tQMw885LT-13">
          <mxGeometry width="80" relative="1" as="geometry">
            <mxPoint x="-40" y="192" as="sourcePoint" />
            <mxPoint x="-40" y="282" as="targetPoint" />
          </mxGeometry>
        </mxCell>
        <mxCell id="OtMJaFd4Xo8tQMw885LT-11" style="edgeStyle=orthogonalEdgeStyle;rounded=0;orthogonalLoop=1;jettySize=auto;html=1;entryX=0;entryY=0.5;entryDx=0;entryDy=0;" edge="1" parent="1" source="OtMJaFd4Xo8tQMw885LT-9" target="OtMJaFd4Xo8tQMw885LT-10">
          <mxGeometry relative="1" as="geometry" />
        </mxCell>
        <mxCell id="OtMJaFd4Xo8tQMw885LT-9" value="Save event" style="rounded=1;whiteSpace=wrap;html=1;" vertex="1" parent="1">
          <mxGeometry x="227" y="281" width="90" height="36" as="geometry" />
        </mxCell>
        <mxCell id="OtMJaFd4Xo8tQMw885LT-10" value="" style="ellipse;html=1;shape=endState;fillColor=#000000;strokeColor=#ff0000;" vertex="1" parent="1">
          <mxGeometry x="355" y="284" width="30" height="30" as="geometry" />
        </mxCell>
        <mxCell id="OtMJaFd4Xo8tQMw885LT-36" style="edgeStyle=orthogonalEdgeStyle;rounded=0;orthogonalLoop=1;jettySize=auto;html=1;entryX=0;entryY=0.5;entryDx=0;entryDy=0;" edge="1" parent="1" source="OtMJaFd4Xo8tQMw885LT-13" target="OtMJaFd4Xo8tQMw885LT-15">
          <mxGeometry relative="1" as="geometry" />
        </mxCell>
        <mxCell id="OtMJaFd4Xo8tQMw885LT-13" value="Receive data from user" style="rounded=1;whiteSpace=wrap;html=1;" vertex="1" parent="1">
          <mxGeometry x="-85" y="281" width="90" height="36" as="geometry" />
        </mxCell>
        <mxCell id="OtMJaFd4Xo8tQMw885LT-20" style="edgeStyle=orthogonalEdgeStyle;rounded=0;orthogonalLoop=1;jettySize=auto;html=1;entryX=0;entryY=0.5;entryDx=0;entryDy=0;" edge="1" parent="1" source="OtMJaFd4Xo8tQMw885LT-15" target="OtMJaFd4Xo8tQMw885LT-9">
          <mxGeometry relative="1" as="geometry">
            <mxPoint x="323" y="390" as="targetPoint" />
          </mxGeometry>
        </mxCell>
        <mxCell id="OtMJaFd4Xo8tQMw885LT-21" value="data valid" style="edgeLabel;html=1;align=center;verticalAlign=middle;resizable=0;points=[];" vertex="1" connectable="0" parent="OtMJaFd4Xo8tQMw885LT-20">
          <mxGeometry x="-0.1513" relative="1" as="geometry">
            <mxPoint x="7" as="offset" />
          </mxGeometry>
        </mxCell>
        <mxCell id="OtMJaFd4Xo8tQMw885LT-37" style="edgeStyle=orthogonalEdgeStyle;rounded=0;orthogonalLoop=1;jettySize=auto;html=1;entryX=0.5;entryY=1;entryDx=0;entryDy=0;" edge="1" parent="1" source="OtMJaFd4Xo8tQMw885LT-15" target="OtMJaFd4Xo8tQMw885LT-13">
          <mxGeometry relative="1" as="geometry">
            <Array as="points">
              <mxPoint x="130" y="344" />
              <mxPoint x="-40" y="344" />
            </Array>
          </mxGeometry>
        </mxCell>
        <mxCell id="OtMJaFd4Xo8tQMw885LT-38" value="data invalid" style="edgeLabel;html=1;align=center;verticalAlign=middle;resizable=0;points=[];" vertex="1" connectable="0" parent="OtMJaFd4Xo8tQMw885LT-37">
          <mxGeometry x="0.5135" y="1" relative="1" as="geometry">
            <mxPoint x="64" y="1" as="offset" />
          </mxGeometry>
        </mxCell>
        <mxCell id="OtMJaFd4Xo8tQMw885LT-15" value="" style="rhombus;whiteSpace=wrap;html=1;" vertex="1" parent="1">
          <mxGeometry x="110" y="274" width="40" height="50" as="geometry" />
        </mxCell>
        <mxCell id="OtMJaFd4Xo8tQMw885LT-33" value="&lt;b&gt;Create account&lt;/b&gt;" style="text;html=1;align=center;verticalAlign=middle;resizable=0;points=[];autosize=1;strokeColor=none;fillColor=none;" vertex="1" parent="1">
          <mxGeometry x="-110" y="160" width="110" height="30" as="geometry" />
        </mxCell>
      </root>
    </mxGraphModel>
  </diagram>
</mxfile>
